<svg xmlns="http://www.w3.org/2000/svg" viewBox="0 0 1240 560" width="100%" font-family="Inter, 'Segoe UI', Roboto, system-ui, sans-serif" role="img" aria-labelledby="tcTitle">
  <title id="tcTitle">Text classification NLP tasks — taxonomy of sentiment, emotion, topic, toxicity and information quality tasks</title>

  <!-- Outer branded card -->
  <rect x="2" y="2" width="1236" height="556" rx="14" fill="#FBF7F0" stroke="#E7DDCB" stroke-width="1.5"/>

  <!-- ============ CONNECTORS (drawn first, under boxes) ============ -->
  <g fill="none" stroke="#CBBBA4" stroke-width="1.5">
    <!-- header bottom to horizontal bus -->
    <path d="M620 86 L620 104"/>
    <!-- horizontal bus across the 5 column centers -->
    <path d="M133 104 L1107 104"/>
    <!-- bus down to each column header -->
    <path d="M133 104 L133 126"/>
    <path d="M376 104 L376 126"/>
    <path d="M620 104 L620 126"/>
    <path d="M864 104 L864 126"/>
    <path d="M1107 104 L1107 126"/>

    <!-- Column 1: Sentiment & opinion — 6 items -->
    <path d="M52 178 L52 440"/>
    <path d="M52 200 L74 200"/>
    <path d="M52 246 L74 246"/>
    <path d="M52 292 L74 292"/>
    <path d="M52 338 L74 338"/>
    <path d="M52 384 L74 384"/>
    <path d="M52 430 L74 430"/>

    <!-- Column 2: Emotion — 4 items -->
    <path d="M295 178 L295 348"/>
    <path d="M295 200 L317 200"/>
    <path d="M295 246 L317 246"/>
    <path d="M295 292 L317 292"/>
    <path d="M295 338 L317 338"/>

    <!-- Column 3: Topic — 3 items -->
    <path d="M539 178 L539 302"/>
    <path d="M539 200 L561 200"/>
    <path d="M539 246 L561 246"/>
    <path d="M539 292 L561 292"/>

    <!-- Column 4: Toxicity — 5 items -->
    <path d="M783 178 L783 394"/>
    <path d="M783 200 L805 200"/>
    <path d="M783 246 L805 246"/>
    <path d="M783 292 L805 292"/>
    <path d="M783 338 L805 338"/>
    <path d="M783 384 L805 384"/>

    <!-- Column 5: Information quality — 3 items -->
    <path d="M1027 178 L1027 316"/>
    <path d="M1027 200 L1049 200"/>
    <path d="M1027 254 L1049 254"/>
    <path d="M1027 306 L1049 306"/>
  </g>

  <!-- ============ HEADER ============ -->
  <rect x="455" y="40" width="330" height="46" rx="12" fill="#FBEDE3" stroke="#C66A3D" stroke-width="1.5"/>
  <text x="620" y="69" text-anchor="middle" font-size="20" font-weight="700" fill="#9C4F2B">Text classification NLP tasks</text>

  <!-- ============ COLUMN HEADERS ============ -->
  <!-- 1 Sentiment & opinion (terracotta) -->
  <rect x="20" y="126" width="226" height="44" rx="11" fill="#FBEDE3" stroke="#C66A3D" stroke-width="1.5"/>
  <text x="133" y="153" text-anchor="middle" font-size="15" font-weight="700" fill="#9C4F2B">Sentiment &amp; opinion</text>

  <!-- 2 Emotion classification (forest green) -->
  <rect x="263" y="126" width="226" height="44" rx="11" fill="#E7F1EC" stroke="#1F5B3F" stroke-width="1.5"/>
  <text x="376" y="153" text-anchor="middle" font-size="15" font-weight="700" fill="#1F5B3F">Emotion classification</text>

  <!-- 3 Topic classification (gold) -->
  <rect x="507" y="126" width="226" height="44" rx="11" fill="#F8ECD6" stroke="#B97F37" stroke-width="1.5"/>
  <text x="620" y="153" text-anchor="middle" font-size="15" font-weight="700" fill="#B97F37">Topic classification</text>

  <!-- 4 Toxicity & safety (deep rust) -->
  <rect x="751" y="126" width="226" height="44" rx="11" fill="#F3E0D8" stroke="#8A3B25" stroke-width="1.5"/>
  <text x="864" y="153" text-anchor="middle" font-size="15" font-weight="700" fill="#8A3B25">Toxicity &amp; safety</text>

  <!-- 5 Information quality (mid green) -->
  <rect x="994" y="126" width="226" height="44" rx="11" fill="#E7F1EC" stroke="#2E7D5B" stroke-width="1.5"/>
  <text x="1107" y="153" text-anchor="middle" font-size="15" font-weight="700" fill="#2E7D5B">Information quality</text>

  <!-- ============ COLUMN 1 ITEMS (terracotta) ============ -->
  <g>
    <rect x="74" y="182" width="172" height="36" rx="10" fill="#FBEDE3" stroke="#C66A3D" stroke-width="1.5"/>
    <text x="160" y="205" text-anchor="middle" font-size="13" font-weight="600" fill="#9C4F2B">Polarity</text>

    <rect x="74" y="228" width="172" height="36" rx="10" fill="#FBEDE3" stroke="#C66A3D" stroke-width="1.5"/>
    <text x="160" y="251" text-anchor="middle" font-size="13" font-weight="600" fill="#9C4F2B">Fine-grained rating</text>

    <rect x="74" y="274" width="172" height="36" rx="10" fill="#FBEDE3" stroke="#C66A3D" stroke-width="1.5"/>
    <text x="160" y="297" text-anchor="middle" font-size="13" font-weight="600" fill="#9C4F2B">Aspect-based sent.</text>

    <rect x="74" y="320" width="172" height="36" rx="10" fill="#FBEDE3" stroke="#C66A3D" stroke-width="1.5"/>
    <text x="160" y="343" text-anchor="middle" font-size="13" font-weight="600" fill="#9C4F2B">Opinion mining</text>

    <rect x="74" y="366" width="172" height="36" rx="10" fill="#FBEDE3" stroke="#C66A3D" stroke-width="1.5"/>
    <text x="160" y="389" text-anchor="middle" font-size="13" font-weight="600" fill="#9C4F2B">Stance classification</text>

    <rect x="74" y="412" width="172" height="36" rx="10" fill="#FBF7F0" stroke="#E7DDCB" stroke-width="1.5"/>
    <text x="160" y="435" text-anchor="middle" font-size="13" font-weight="500" font-style="italic" fill="#8A7D6E">Others</text>
  </g>

  <!-- ============ COLUMN 2 ITEMS (forest green) ============ -->
  <g>
    <rect x="317" y="182" width="172" height="36" rx="10" fill="#E7F1EC" stroke="#1F5B3F" stroke-width="1.5"/>
    <text x="403" y="205" text-anchor="middle" font-size="13" font-weight="600" fill="#1F5B3F">Single-label emotion</text>

    <rect x="317" y="228" width="172" height="36" rx="10" fill="#E7F1EC" stroke="#1F5B3F" stroke-width="1.5"/>
    <text x="403" y="251" text-anchor="middle" font-size="13" font-weight="600" fill="#1F5B3F">Multi-label emotion</text>

    <rect x="317" y="274" width="172" height="36" rx="10" fill="#E7F1EC" stroke="#1F5B3F" stroke-width="1.5"/>
    <text x="403" y="297" text-anchor="middle" font-size="13" font-weight="600" fill="#1F5B3F">Intensity prediction</text>

    <rect x="317" y="320" width="172" height="36" rx="10" fill="#FBF7F0" stroke="#E7DDCB" stroke-width="1.5"/>
    <text x="403" y="343" text-anchor="middle" font-size="13" font-weight="500" font-style="italic" fill="#8A7D6E">Others</text>
  </g>

  <!-- ============ COLUMN 3 ITEMS (gold) ============ -->
  <g>
    <rect x="561" y="182" width="172" height="36" rx="10" fill="#F8ECD6" stroke="#B97F37" stroke-width="1.5"/>
    <text x="647" y="205" text-anchor="middle" font-size="13" font-weight="600" fill="#B97F37">News topic categ.</text>

    <rect x="561" y="228" width="172" height="36" rx="10" fill="#F8ECD6" stroke="#B97F37" stroke-width="1.5"/>
    <text x="647" y="251" text-anchor="middle" font-size="13" font-weight="600" fill="#B97F37">Email folder class.</text>

    <rect x="561" y="274" width="172" height="36" rx="10" fill="#FBF7F0" stroke="#E7DDCB" stroke-width="1.5"/>
    <text x="647" y="297" text-anchor="middle" font-size="13" font-weight="500" font-style="italic" fill="#8A7D6E">Others</text>
  </g>

  <!-- ============ COLUMN 4 ITEMS (deep rust) ============ -->
  <g>
    <rect x="805" y="182" width="172" height="36" rx="10" fill="#F3E0D8" stroke="#8A3B25" stroke-width="1.5"/>
    <text x="891" y="205" text-anchor="middle" font-size="13" font-weight="600" fill="#8A3B25">Hate speech detection</text>

    <rect x="805" y="228" width="172" height="36" rx="10" fill="#F3E0D8" stroke="#8A3B25" stroke-width="1.5"/>
    <text x="891" y="251" text-anchor="middle" font-size="13" font-weight="600" fill="#8A3B25">Toxicity classification</text>

    <rect x="805" y="274" width="172" height="36" rx="10" fill="#F3E0D8" stroke="#8A3B25" stroke-width="1.5"/>
    <text x="891" y="297" text-anchor="middle" font-size="13" font-weight="600" fill="#8A3B25">Misinformation detect.</text>

    <rect x="805" y="320" width="172" height="36" rx="10" fill="#F3E0D8" stroke="#8A3B25" stroke-width="1.5"/>
    <text x="891" y="343" text-anchor="middle" font-size="13" font-weight="600" fill="#8A3B25">Spam detection</text>

    <rect x="805" y="366" width="172" height="36" rx="10" fill="#FBF7F0" stroke="#E7DDCB" stroke-width="1.5"/>
    <text x="891" y="389" text-anchor="middle" font-size="13" font-weight="500" font-style="italic" fill="#8A7D6E">Others</text>
  </g>

  <!-- ============ COLUMN 5 ITEMS (mid green) ============ -->
  <g>
    <rect x="1049" y="182" width="172" height="36" rx="10" fill="#E7F1EC" stroke="#2E7D5B" stroke-width="1.5"/>
    <text x="1135" y="205" text-anchor="middle" font-size="13" font-weight="600" fill="#2E7D5B">Fake news detection</text>

    <rect x="1049" y="228" width="172" height="52" rx="10" fill="#E7F1EC" stroke="#2E7D5B" stroke-width="1.5"/>
    <text x="1135" y="249" text-anchor="middle" font-size="13" font-weight="600" fill="#2E7D5B">Fact-checking</text>
    <text x="1135" y="266" text-anchor="middle" font-size="13" font-weight="600" fill="#2E7D5B">classification</text>

    <rect x="1049" y="290" width="172" height="36" rx="10" fill="#FBF7F0" stroke="#E7DDCB" stroke-width="1.5"/>
    <text x="1135" y="313" text-anchor="middle" font-size="13" font-weight="500" font-style="italic" fill="#8A7D6E">Others</text>
  </g>
</svg>
